<svg width="24" height="24" viewBox="0 0 24 24" fill="none" xmlns="http://www.w3.org/2000/svg">
<path d="M14.377 8.98302C14.1105 8.98302 13.8885 9.21644 13.8885 9.49655V19.2302C13.8885 19.5103 14.1105 19.7438 14.377 19.7438C14.6435 19.7438 14.8655 19.5103 14.8655 19.2302V9.49655C14.8655 9.20477 14.6435 8.98302 14.377 8.98302Z" fill="black"/>
<path d="M8.59247 8.98302C8.326 8.98302 8.10394 9.21644 8.10394 9.49655V19.2302C8.10394 19.5103 8.326 19.7438 8.59247 19.7438C8.85894 19.7438 9.081 19.5103 9.081 19.2302V9.49655C9.09211 9.20477 8.87005 8.98302 8.59247 8.98302Z" fill="black"/>
<path d="M4.38441 7.55914V20.2456C4.38441 20.9926 4.65087 21.7045 5.10609 22.2063C5.56131 22.7082 6.19419 23 6.86037 23H16.1313C16.7975 23 17.4303 22.7082 17.8855 22.2063C18.3408 21.7045 18.6072 20.9926 18.6072 20.2456V7.55914C19.5177 7.30238 20.1061 6.38036 19.984 5.39999C19.8619 4.41961 19.0736 3.68434 18.1298 3.68434H15.6205V3.04244C15.6205 2.50557 15.4207 1.98035 15.0543 1.5952C14.6879 1.21006 14.1994 1 13.6775 1H9.32521C8.81448 1 8.31483 1.21006 7.94843 1.5952C7.58204 1.98035 7.38221 2.4939 7.38221 3.04244V3.68434H4.87294C3.92919 3.68434 3.14091 4.41961 3.01878 5.39999C2.88554 6.38036 3.47397 7.30238 4.38441 7.55914ZM16.1202 21.9729H6.84926C6.01654 21.9729 5.36147 21.2143 5.36147 20.2456V7.60584H17.608V20.2456C17.608 21.2143 16.964 21.9729 16.1202 21.9729ZM8.34815 3.04244C8.34815 2.774 8.44808 2.51722 8.62573 2.33049C8.80337 2.14375 9.04762 2.03871 9.30299 2.03871H13.6553C13.9107 2.03871 14.155 2.14375 14.3326 2.33049C14.5102 2.51722 14.6102 2.774 14.6102 3.04244V3.68434H8.33704V3.04244H8.34815ZM4.86183 4.72308H18.1076C18.5961 4.72308 18.9847 5.14321 18.9847 5.64507C18.9847 6.14693 18.585 6.56709 18.1076 6.56709H4.86183C4.3733 6.56709 3.98472 6.14693 3.98472 5.64507C3.98472 5.14321 4.3733 4.72308 4.86183 4.72308Z" fill="black"/>
<path d="M11.4903 8.98302C11.2238 8.98302 11.0018 9.21644 11.0018 9.49655V19.2302C11.0018 19.5103 11.2238 19.7438 11.4903 19.7438C11.7568 19.7438 11.9788 19.5103 11.9788 19.2302V9.49655C11.9788 9.20477 11.7568 8.98302 11.4903 8.98302Z" fill="black"/>
</svg>
