<svg width="36" height="36" viewBox="0 0 36 36" fill="none" xmlns="http://www.w3.org/2000/svg">
<g clip-path="url(#clip0_7_72)">
<path d="M31.6 7.36999V12.12H5.29004V7.36999C5.29004 6.70999 5.82004 6.17999 6.48004 6.17999H10.34V7.86999C10.34 8.52999 10.87 9.05999 11.53 9.05999H12.04C12.7 9.05999 13.23 8.52999 13.23 7.86999V6.17999H17.22V7.86999C17.22 8.52999 17.75 9.05999 18.41 9.05999H18.92C19.58 9.05999 20.11 8.52999 20.11 7.86999V6.17999H24.1V7.86999C24.1 8.52999 24.63 9.05999 25.29 9.05999H25.8C26.46 9.05999 26.99 8.52999 26.99 7.86999V6.17999H30.4C31.06 6.17999 31.59 6.70999 31.59 7.36999H31.6Z" fill="#F9DC06" stroke="#414143" stroke-width="0.55" stroke-linecap="round" stroke-linejoin="round"/>
<path d="M31.6 12.41H5.29C5.13 12.41 5 12.28 5 12.12V7.37C5 6.55 5.67 5.88 6.49 5.88H10.59C10.75 5.88 10.88 6.01 10.88 6.17C10.88 6.32 10.77 6.44 10.64 6.46V7.86C10.64 8.35 11.04 8.76 11.54 8.76H12.05C12.54 8.76 12.95 8.36 12.95 7.86V6.17C12.95 6.01 13.08 5.88 13.24 5.88H17.23C17.39 5.88 17.52 6.01 17.52 6.17V7.86C17.52 8.35 17.92 8.76 18.42 8.76H18.93C19.42 8.76 19.83 8.36 19.83 7.86V6.17C19.83 6.01 19.96 5.88 20.12 5.88H24.11C24.27 5.88 24.4 6.01 24.4 6.17V7.86C24.4 8.35 24.8 8.76 25.3 8.76H25.81C26.3 8.76 26.71 8.36 26.71 7.86V6.17C26.71 6.01 26.84 5.88 27 5.88H30.41C31.23 5.88 31.9 6.55 31.9 7.37V12.12C31.9 12.28 31.77 12.41 31.61 12.41H31.6ZM5.59 11.82H31.31V7.37C31.31 6.88 30.91 6.47 30.41 6.47H27.3V7.86C27.3 8.68 26.63 9.35 25.81 9.35H25.3C24.48 9.35 23.81 8.68 23.81 7.86V6.47H20.41V7.86C20.41 8.68 19.74 9.35 18.92 9.35H18.41C17.59 9.35 16.92 8.68 16.92 7.86V6.47H13.52V7.86C13.52 8.68 12.85 9.35 12.03 9.35H11.52C10.7 9.35 10.03 8.68 10.03 7.86V6.47H6.49C6 6.47 5.59 6.87 5.59 7.37V11.82Z" fill="#381999"/>
<path d="M31.6 12.11V31.51C31.6 32.17 31.07 32.7 30.41 32.7H6.49005C5.83005 32.7 5.30005 32.17 5.30005 31.51V12.11H31.6Z" fill="white"/>
<path d="M30.41 33H6.49C5.67 33 5 32.33 5 31.51V12.11C5 11.95 5.13 11.82 5.29 11.82H31.6C31.76 11.82 31.89 11.95 31.89 12.11V31.51C31.89 32.33 31.22 33 30.4 33H30.41ZM5.59 12.41V31.51C5.59 32 5.99 32.41 6.49 32.41H30.41C30.9 32.41 31.31 32.01 31.31 31.51V12.41H5.59Z" fill="#381999"/>
<path d="M13.0601 15.15H10.5201C10.1279 15.15 9.81006 15.4678 9.81006 15.86V18.4C9.81006 18.7921 10.1279 19.11 10.5201 19.11H13.0601C13.4522 19.11 13.7701 18.7921 13.7701 18.4V15.86C13.7701 15.4678 13.4522 15.15 13.0601 15.15Z" fill="white"/>
<path d="M13.06 19.41H10.53C9.97002 19.41 9.52002 18.96 9.52002 18.4V15.87C9.52002 15.31 9.97002 14.86 10.53 14.86H13.06C13.62 14.86 14.07 15.31 14.07 15.87V18.4C14.07 18.96 13.62 19.41 13.06 19.41ZM10.53 15.45C10.3 15.45 10.11 15.64 10.11 15.87V18.4C10.11 18.63 10.3 18.82 10.53 18.82H13.06C13.29 18.82 13.48 18.63 13.48 18.4V15.87C13.48 15.64 13.29 15.45 13.06 15.45H10.53Z" fill="#381999"/>
<path d="M19.9399 15.15H17.3999C17.0078 15.15 16.6899 15.4678 16.6899 15.86V18.4C16.6899 18.7921 17.0078 19.11 17.3999 19.11H19.9399C20.3321 19.11 20.6499 18.7921 20.6499 18.4V15.86C20.6499 15.4678 20.3321 15.15 19.9399 15.15Z" fill="white"/>
<path d="M19.9399 19.41H17.4099C16.8499 19.41 16.3999 18.96 16.3999 18.4V15.87C16.3999 15.31 16.8499 14.86 17.4099 14.86H19.9399C20.4999 14.86 20.9499 15.31 20.9499 15.87V18.4C20.9499 18.96 20.4999 19.41 19.9399 19.41ZM17.4099 15.45C17.1799 15.45 16.9899 15.64 16.9899 15.87V18.4C16.9899 18.63 17.1799 18.82 17.4099 18.82H19.9399C20.1699 18.82 20.3599 18.63 20.3599 18.4V15.87C20.3599 15.64 20.1699 15.45 19.9399 15.45H17.4099Z" fill="#381999"/>
<path d="M26.8301 15.15H24.2901C23.898 15.15 23.5801 15.4678 23.5801 15.86V18.4C23.5801 18.7921 23.898 19.11 24.2901 19.11H26.8301C27.2222 19.11 27.5401 18.7921 27.5401 18.4V15.86C27.5401 15.4678 27.2222 15.15 26.8301 15.15Z" fill="#54B0EF" stroke="#381999" stroke-width="0.53" stroke-linecap="round" stroke-linejoin="round"/>
<path d="M26.82 19.41H24.29C23.73 19.41 23.28 18.96 23.28 18.4V15.87C23.28 15.31 23.73 14.86 24.29 14.86H26.82C27.38 14.86 27.83 15.31 27.83 15.87V18.4C27.83 18.96 27.38 19.41 26.82 19.41ZM24.29 15.45C24.06 15.45 23.87 15.64 23.87 15.87V18.4C23.87 18.63 24.06 18.82 24.29 18.82H26.82C27.05 18.82 27.24 18.63 27.24 18.4V15.87C27.24 15.64 27.05 15.45 26.82 15.45H24.29Z" fill="#381999"/>
<path d="M13.0601 22.15H10.5201C10.1279 22.15 9.81006 22.4678 9.81006 22.86V25.4C9.81006 25.7921 10.1279 26.11 10.5201 26.11H13.0601C13.4522 26.11 13.7701 25.7921 13.7701 25.4V22.86C13.7701 22.4678 13.4522 22.15 13.0601 22.15Z" fill="white"/>
<path d="M13.06 26.4H10.53C9.97002 26.4 9.52002 25.95 9.52002 25.39V22.86C9.52002 22.3 9.97002 21.85 10.53 21.85H13.06C13.62 21.85 14.07 22.3 14.07 22.86V25.39C14.07 25.95 13.62 26.4 13.06 26.4ZM10.53 22.44C10.3 22.44 10.11 22.63 10.11 22.86V25.39C10.11 25.62 10.3 25.81 10.53 25.81H13.06C13.29 25.81 13.48 25.62 13.48 25.39V22.86C13.48 22.63 13.29 22.44 13.06 22.44H10.53Z" fill="#381999"/>
<path d="M19.9399 22.15H17.3999C17.0078 22.15 16.6899 22.4678 16.6899 22.86V25.4C16.6899 25.7921 17.0078 26.11 17.3999 26.11H19.9399C20.3321 26.11 20.6499 25.7921 20.6499 25.4V22.86C20.6499 22.4678 20.3321 22.15 19.9399 22.15Z" fill="#54B0EF" stroke="#381999" stroke-width="0.53" stroke-linecap="round" stroke-linejoin="round"/>
<path d="M19.9399 26.4H17.4099C16.8499 26.4 16.3999 25.95 16.3999 25.39V22.86C16.3999 22.3 16.8499 21.85 17.4099 21.85H19.9399C20.4999 21.85 20.9499 22.3 20.9499 22.86V25.39C20.9499 25.95 20.4999 26.4 19.9399 26.4ZM17.4099 22.44C17.1799 22.44 16.9899 22.63 16.9899 22.86V25.39C16.9899 25.62 17.1799 25.81 17.4099 25.81H19.9399C20.1699 25.81 20.3599 25.62 20.3599 25.39V22.86C20.3599 22.63 20.1699 22.44 19.9399 22.44H17.4099Z" fill="#381999"/>
<path d="M26.8301 22.15H24.2901C23.898 22.15 23.5801 22.4678 23.5801 22.86V25.4C23.5801 25.7921 23.898 26.11 24.2901 26.11H26.8301C27.2222 26.11 27.5401 25.7921 27.5401 25.4V22.86C27.5401 22.4678 27.2222 22.15 26.8301 22.15Z" fill="#54B0EF" stroke="#381999" stroke-width="0.53" stroke-linecap="round" stroke-linejoin="round"/>
<path d="M26.82 26.4H24.29C23.73 26.4 23.28 25.95 23.28 25.39V22.86C23.28 22.3 23.73 21.85 24.29 21.85H26.82C27.38 21.85 27.83 22.3 27.83 22.86V25.39C27.83 25.95 27.38 26.4 26.82 26.4ZM24.29 22.44C24.06 22.44 23.87 22.63 23.87 22.86V25.39C23.87 25.62 24.06 25.81 24.29 25.81H26.82C27.05 25.81 27.24 25.62 27.24 25.39V22.86C27.24 22.63 27.05 22.44 26.82 22.44H24.29Z" fill="#381999"/>
<path d="M27.54 29.44H9.81002C9.65002 29.44 9.52002 29.31 9.52002 29.15C9.52002 28.99 9.65002 28.86 9.81002 28.86H27.54C27.7 28.86 27.83 28.99 27.83 29.15C27.83 29.31 27.7 29.44 27.54 29.44Z" fill="#381999"/>
<path d="M13.77 29.44H9.81002C9.65002 29.44 9.52002 29.31 9.52002 29.15C9.52002 28.99 9.65002 28.86 9.81002 28.86H13.77C13.93 28.86 14.06 28.99 14.06 29.15C14.06 29.31 13.93 29.44 13.77 29.44Z" fill="#043454"/>
<path d="M11.5401 3.28998H12.0501C12.7101 3.28998 13.2401 3.81998 13.2401 4.47998V7.85998C13.2401 8.51998 12.7101 9.04998 12.0501 9.04998H11.5401C10.8801 9.04998 10.3501 8.51998 10.3501 7.85998V4.48998C10.3501 3.82998 10.8801 3.29998 11.5401 3.29998V3.28998Z" fill="white"/>
<path d="M12.05 9.35H11.54C10.72 9.35 10.05 8.68 10.05 7.86V4.49C10.05 3.67 10.72 3 11.54 3H12.05C12.87 3 13.54 3.67 13.54 4.49V7.87C13.54 8.69 12.87 9.36 12.05 9.36V9.35ZM11.54 3.59C11.05 3.59 10.64 3.99 10.64 4.49V7.87C10.64 8.36 11.04 8.77 11.54 8.77H12.05C12.54 8.77 12.95 8.37 12.95 7.87V4.49C12.95 4 12.55 3.59 12.05 3.59H11.54Z" fill="#381999"/>
<path d="M18.93 3.28998H18.42C17.7628 3.28998 17.23 3.82276 17.23 4.47998V7.85998C17.23 8.5172 17.7628 9.04998 18.42 9.04998H18.93C19.5872 9.04998 20.12 8.5172 20.12 7.85998V4.47998C20.12 3.82276 19.5872 3.28998 18.93 3.28998Z" fill="white"/>
<path d="M18.9299 9.35H18.4199C17.5999 9.35 16.9299 8.68 16.9299 7.86V4.49C16.9299 3.67 17.5999 3 18.4199 3H18.9299C19.7499 3 20.4199 3.67 20.4199 4.49V7.87C20.4199 8.69 19.7499 9.36 18.9299 9.36V9.35ZM18.4199 3.59C17.9299 3.59 17.5199 3.99 17.5199 4.49V7.87C17.5199 8.36 17.9199 8.77 18.4199 8.77H18.9299C19.4199 8.77 19.8299 8.37 19.8299 7.87V4.49C19.8299 4 19.4299 3.59 18.9299 3.59H18.4199V3.59Z" fill="#381999"/>
<path d="M25.8101 3.28998H25.3001C24.6429 3.28998 24.1101 3.82276 24.1101 4.47998V7.85998C24.1101 8.5172 24.6429 9.04998 25.3001 9.04998H25.8101C26.4673 9.04998 27.0001 8.5172 27.0001 7.85998V4.47998C27.0001 3.82276 26.4673 3.28998 25.8101 3.28998Z" fill="white"/>
<path d="M25.8101 9.35H25.3001C24.4801 9.35 23.8101 8.68 23.8101 7.86V4.49C23.8101 3.67 24.4801 3 25.3001 3H25.8101C26.6301 3 27.3001 3.67 27.3001 4.49V7.87C27.3001 8.69 26.6301 9.36 25.8101 9.36V9.35ZM25.3001 3.59C24.8101 3.59 24.4001 3.99 24.4001 4.49V7.87C24.4001 8.36 24.8001 8.77 25.3001 8.77H25.8101C26.3001 8.77 26.7101 8.37 26.7101 7.87V4.49C26.7101 4 26.3101 3.59 25.8101 3.59H25.3001V3.59Z" fill="#381999"/>
</g>
<defs>
<clipPath id="clip0_7_72">
<rect width="26.89" height="30" fill="white" transform="translate(5 3)"/>
</clipPath>
</defs>
</svg>
