<?xml version="1.0" encoding="UTF-8" standalone="no"?>
<svg
   width="24"
   height="24"
   viewBox="0 0 24 24"
   version="1.1"
   id="svg12"
   xmlns="http://www.w3.org/2000/svg"
   xmlns:svg="http://www.w3.org/2000/svg">
  <defs
     id="defs16" />
  <path
     d="m 20,20 h -4 v -4 h 4 z M 14,10 h -4 v 4 h 4 z m 6,0 h -4 v 4 h 4 z M 8,16 H 4 v 4 h 4 z m 6,0 h -4 v 4 h 4 z M 8,10 H 4 v 4 H 8 Z M 24,2 V 24 H 0 V 2 H 3 V 3 C 3,4.103 3.897,5 5,5 6.103,5 7,4.103 7,3 V 2 h 10 v 1 c 0,1.103 0.897,2 2,2 1.103,0 2,-0.897 2,-2 V 2 Z M 22,8 H 2 V 22 H 22 Z M 20,1 C 20,0.448 19.553,0 19,0 18.447,0 18,0.448 18,1 v 2 c 0,0.552 0.447,1 1,1 0.553,0 1,-0.448 1,-1 z M 6,3 C 6,3.552 5.553,4 5,4 4.447,4 4,3.552 4,3 V 1 C 4,0.448 4.447,0 5,0 5.553,0 6,0.448 6,1 Z"
     id="path10"
     style="fill:#9e9e9e;fill-opacity:1" />
</svg>
