<svg id="Layer_1" data-name="Layer 1" xmlns="http://www.w3.org/2000/svg" viewBox="0 0 1100 938.14"><defs><style>.cls-1{fill-rule:evenodd;}</style></defs><path class="cls-1" d="M410.36,702.24H940.73a32.93,32.93,0,0,1,0,65.85H385.21c-16.85,0-28.51-11.41-32.66-27L171.61,65.85H32.92A32.93,32.93,0,0,1,32.92,0H197.53a33.3,33.3,0,0,1,32.92,30.85l24.89,92.54H1068c2.07.26,4.4.52,6.74,1h0a33,33,0,0,1,24.37,39.66L998.28,577a33.41,33.41,0,0,1-31.37,25.14H383.4ZM865.3,803.08a67.42,67.42,0,0,1,67.39,67.4c0,37.33-30.32,67.66-67.39,67.66a67.53,67.53,0,1,1,0-135.06Zm-416.58,0a67.53,67.53,0,1,1,0,135.06c-37.07,0-67.4-30.33-67.4-67.66a67.43,67.43,0,0,1,67.4-67.4ZM890.44,189.23,874.89,330.51H990.5L1025,189.23ZM867.89,396.36l-15.29,140h87.87l34-140Zm-81.14,140,15.29-140H696v140ZM809,330.51,824.6,189.23H696V330.51ZM435.76,189.23l15.3,141.28H310.82L273,189.23Zm22.29,207.13,15.3,140H365.77l-37.33-140Zm81.14,140-15.29-140H630.18v140ZM516.9,330.51,501.6,189.23H630.18V330.51Z"/></svg>