<svg id="Layer_1" data-name="Layer 1" xmlns="http://www.w3.org/2000/svg" viewBox="0 0 27.84 32.86"><defs><style>.cls-1{fill:#f8da07;}.cls-2{fill:#003948;}.cls-3{fill:#fff;}</style></defs><path class="cls-1" d="M.46,30.72A1.68,1.68,0,0,0,2.14,32.4H16.5a1.68,1.68,0,0,0,1.68-1.68V27.55H.46Z"/><path class="cls-2" d="M16.5,32.86H2.14A2.14,2.14,0,0,1,0,30.72V27.55a.46.46,0,0,1,.46-.46H18.18a.46.46,0,0,1,.46.46v3.17A2.14,2.14,0,0,1,16.5,32.86ZM.92,28v2.71a1.22,1.22,0,0,0,1.22,1.22H16.5a1.22,1.22,0,0,0,1.22-1.22V28Z"/><path class="cls-1" d="M18.18,2.14A1.69,1.69,0,0,0,16.5.46H2.14A1.69,1.69,0,0,0,.46,2.14V4.76H18.18Z"/><path class="cls-2" d="M18.18,5.21H.46A.46.46,0,0,1,0,4.76V2.14A2.14,2.14,0,0,1,2.14,0H16.5a2.14,2.14,0,0,1,2.14,2.14V4.76A.46.46,0,0,1,18.18,5.21ZM.92,4.3h16.8V2.14A1.22,1.22,0,0,0,16.5.92H2.14A1.22,1.22,0,0,0,.92,2.14Z"/><rect class="cls-2" x="7.53" y="29.56" width="3.58" height="0.92"/><path class="cls-3" d="M15.77,20.49l-1.72,2-1.71-2H10.72a1,1,0,0,1-1-1V9.91a1,1,0,0,1,1-1h7.46V4.76H.46V27.55H18.18V20.49Z"/><path class="cls-2" d="M18.18,28H.46A.47.47,0,0,1,0,27.55V4.76A.46.46,0,0,1,.46,4.3H18.18a.46.46,0,0,1,.46.46V8.9a.47.47,0,0,1-.46.46H10.72a.55.55,0,0,0-.55.55v9.57a.55.55,0,0,0,.55.55h1.62a.44.44,0,0,1,.34.16l1.37,1.56,1.37-1.56a.46.46,0,0,1,.35-.16h2.41a.47.47,0,0,1,.46.46v7.06A.47.47,0,0,1,18.18,28ZM.92,27.09h16.8V21H16l-1.57,1.8a.47.47,0,0,1-.69,0L12.13,21H10.72a1.47,1.47,0,0,1-1.47-1.47V9.91a1.47,1.47,0,0,1,1.47-1.47h7V5.21H.92Z"/><rect class="cls-2" x="7.35" y="2.23" width="1.15" height="0.92"/><rect class="cls-2" x="9.13" y="2.23" width="3.11" height="0.92"/><rect class="cls-2" x="3.9" y="14.37" width="6.81" height="0.92" transform="translate(-8.35 9.51) rotate(-45)"/><rect class="cls-2" x="3.91" y="18.8" width="6.75" height="0.92" transform="translate(-11.49 10.79) rotate(-45)"/><path class="cls-1" d="M26.37,8.9H10.72a1,1,0,0,0-1,1v9.57a1,1,0,0,0,1,1h1.62l1.71,2,1.72-2h10.6a1,1,0,0,0,1-1V9.91A1,1,0,0,0,26.37,8.9Z"/><path class="cls-2" d="M14.05,22.9a.43.43,0,0,1-.34-.15L12.13,21H10.72a1.47,1.47,0,0,1-1.47-1.47V9.91a1.47,1.47,0,0,1,1.47-1.47H26.37a1.47,1.47,0,0,1,1.47,1.47v9.57A1.47,1.47,0,0,1,26.37,21H16l-1.57,1.8A.47.47,0,0,1,14.05,22.9ZM10.72,9.36a.55.55,0,0,0-.55.55v9.57a.55.55,0,0,0,.55.55h1.62a.44.44,0,0,1,.34.16l1.37,1.56,1.37-1.56a.46.46,0,0,1,.35-.16h10.6a.55.55,0,0,0,.55-.55V9.91a.55.55,0,0,0-.55-.55Z"/><path class="cls-3" d="M15.4,14.28A1.37,1.37,0,1,1,14,12.91,1.38,1.38,0,0,1,15.4,14.28Z"/><path class="cls-2" d="M14,16.11a1.83,1.83,0,1,1,1.83-1.83A1.83,1.83,0,0,1,14,16.11Zm0-2.74a.91.91,0,1,0,.91.91A.91.91,0,0,0,14,13.37Z"/><path class="cls-3" d="M19.8,14.28a1.37,1.37,0,1,1-1.37-1.37A1.38,1.38,0,0,1,19.8,14.28Z"/><path class="cls-2" d="M18.43,16.11a1.83,1.83,0,1,1,1.82-1.83A1.83,1.83,0,0,1,18.43,16.11Zm0-2.74a.91.91,0,1,0,.91.91A.91.91,0,0,0,18.43,13.37Z"/><path class="cls-3" d="M24.19,14.28a1.37,1.37,0,1,1-1.36-1.37A1.37,1.37,0,0,1,24.19,14.28Z"/><path class="cls-2" d="M22.83,16.11a1.83,1.83,0,1,1,1.82-1.83A1.83,1.83,0,0,1,22.83,16.11Zm0-2.74a.91.91,0,1,0,.9.91A.91.91,0,0,0,22.83,13.37Z"/></svg>