<svg id="Warstwa_1" data-name="Warstwa 1" xmlns="http://www.w3.org/2000/svg" viewBox="0 0 304.89 304.89"><defs><style>.cls-1{fill:none;stroke-width:4px;}.cls-1,.cls-2{stroke:#a1a0a0;stroke-miterlimit:10;}.cls-2{fill:#a1a0a0;}</style></defs><rect class="cls-1" x="2" y="2" width="300.89" height="300.89"/><path class="cls-2" d="M61.73,78.86H86.88v9H71.38v16.37H82.54v9H71.38V132h15.5v9.38H61.73Z"/><path class="cls-2" d="M99.62,78.86l5.76,37a81.15,81.15,0,0,1,1.06,13V130a129.72,129.72,0,0,1,1.06-14.17l5.58-37h9.47l-11.06,62.5H101.4L90.24,78.86Z"/><path class="cls-2" d="M128.31,78.86h25.14v9H138v16.37h11.15v9H138V132h15.49v9.38H128.31Z"/><path class="cls-2" d="M170.45,141.36H160.8V78.86H175c10.44,0,15.05,5.22,15.05,18.06,0,7.43-1.6,12.21-6.11,15.4l7.08,29H181l-5.94-26.29h-4.6Zm0-35.32h3.81c4.69,0,5.93-2.57,5.93-9.48,0-6.64-1.6-8.67-6.29-8.67h-3.45Z"/><path class="cls-2" d="M201.52,78.86l6.29,25h.62l5.93-25h9.83L213,115.42v25.94H203.3V116.57L191.79,78.86Z"/><path class="cls-2" d="M71,157.65l4.25,37a85.58,85.58,0,0,1,.62,9.82v1.24c.35-6.46.53-10.53.8-12.3l4.78-35.77h8.23l5.14,37a80.83,80.83,0,0,1,.62,11.06c.26-5.22.44-9.29.79-12.3l4-35.77h9.11l-9.73,62.5H91.58l-5.31-36.29a81.07,81.07,0,0,1-.62-11.07c-.36,6.82-.62,10.89-.8,12.31l-5.13,35.05H71.66l-9.83-62.5Z"/><path class="cls-2" d="M124.51,157.65v25.5h9.65v-25.5h9.65v62.5h-9.65v-28h-9.65v28H115v-62.5Z"/><path class="cls-2" d="M153.73,157.65h25.14v9H163.38v16.38h11.15v9H163.38v18.68h15.49v9.38H153.73Z"/><path class="cls-2" d="M195.87,220.15h-9.65v-62.5h14.17c10.44,0,15.05,5.22,15.05,18.06,0,7.44-1.6,12.22-6.11,15.41l7.08,29h-10l-5.94-26.29h-4.6Zm0-35.32h3.81c4.69,0,5.93-2.57,5.93-9.47,0-6.64-1.59-8.68-6.29-8.68h-3.45Z"/><path class="cls-2" d="M223.23,157.65h25.14v9H232.88v16.38H244v9H232.88v18.68h15.49v9.38H223.23Z"/><path class="cls-2" d="M232.86,79h8.49v2.58h-2.88V96.8h-2.76V81.53h-2.85Z"/><path class="cls-2" d="M242.59,79h3.67l1.79,9.89a14.87,14.87,0,0,1,.23,2.68,15.48,15.48,0,0,1,.25-2.66L250.25,79H254V96.8h-2.58V85.53c0-.51.05-1.55.2-3.11-.2,1.21-.33,2-.43,2.53L248.91,96.8h-1.36L245.4,85c-.26-1.45-.38-2.31-.43-2.53.12,1.34.17,2.37.17,3.11V96.8h-2.55Z"/></svg>