<svg id="_Layer_" data-name="&lt;Layer&gt;" xmlns="http://www.w3.org/2000/svg" viewBox="0 0 540.17 578.25"><defs><style>.cls-1{fill:#fff;}.cls-1,.cls-4{stroke:#111170;stroke-width:10.95px;}.cls-1,.cls-2,.cls-3,.cls-4{stroke-linecap:round;stroke-linejoin:round;}.cls-2{fill:#54b0ef;stroke:#381999;stroke-width:14.49px;}.cls-3{fill:#f9dc06;stroke:#414143;stroke-width:14.86px;}.cls-4{fill:none;}</style></defs><polygon class="cls-1" points="306.64 298.18 306.64 337.41 233.17 337.47 233.17 298.06 306.64 298.18"/><path class="cls-2" d="M492.9,496.05c-31-93.74-119.41-161.37-223.57-161.37S76.81,402.31,45.76,496.05"/><path class="cls-3" d="M393.79,448.38a174.06,174.06,0,0,0-247.41,0L97.38,552a20.34,20.34,0,0,0,20.27,18.88h78.93A20,20,0,0,0,216,556.19a56,56,0,0,1,108.17,0,20.05,20.05,0,0,0,19.43,14.64h78.92A20.33,20.33,0,0,0,442.79,552Z"/><path class="cls-1" d="M50.33,405.12h35a54.29,54.29,0,0,1,54.29,54.29v44.2a54.29,54.29,0,0,1-54.29,54.29h-35a26,26,0,0,1-26-26V431.15a26,26,0,0,1,26-26Z" transform="translate(218.69 12.61) rotate(25.92)"/><path class="cls-1" d="M488.61,551.67,520,536.4a26,26,0,0,0,12-34.78l-44-90.6a26,26,0,0,0-34.77-12l-31.44,15.28a54.27,54.27,0,0,0-25.1,72.55l19.31,39.75A54.29,54.29,0,0,0,488.61,551.67Z"/><path class="cls-1" d="M367.14,139.1v75.49a88,88,0,0,1-88,88H261a88,88,0,0,1-88-88V139a37,37,0,0,1,5-18.87c8.81-14.86,32.26-34.48,92.09-34.48,58.09,0,81.88,18.26,91.27,33.17A37.87,37.87,0,0,1,367.14,139.1Z"/><path class="cls-1" d="M153.6,141.13H173a0,0,0,0,1,0,0v66.59a0,0,0,0,1,0,0H153.6A25.71,25.71,0,0,1,127.89,182V166.84A25.71,25.71,0,0,1,153.6,141.13Z"/><path class="cls-1" d="M392.85,141.13h19.43a0,0,0,0,1,0,0v66.59a0,0,0,0,1,0,0H392.85A25.71,25.71,0,0,1,367.14,182V166.84A25.71,25.71,0,0,1,392.85,141.13Z" transform="translate(779.42 348.84) rotate(180)"/><path class="cls-3" d="M380.51,137.29s12.37-55.62-7.65-82.42c-27.63-37-62.29-26.7-62.29-26.7S283.25-1.12,228.62,9.91c-99.74,20.14-67.9,127.38-67.9,127.38h20s93.66,7.49,124.88-54.95c5,17.48,31.69,54.95,54.95,54.95Z"/><path class="cls-4" d="M199.36,93.06c18.5-1.52,46.73-7.43,63.24-28.38"/><path class="cls-1" d="M100.8,405.75,86.9,399a26.29,26.29,0,0,0-6.13-2.09l0,.12V360.34A20.26,20.26,0,0,1,101,340.08h0a20.26,20.26,0,0,1,20.26,20.26v26.71A239.17,239.17,0,0,0,101,405.5"/><path class="cls-1" d="M439.37,405.75,453.28,399a26.06,26.06,0,0,1,6.12-2.09l0,.12V360.34a20.27,20.27,0,0,0-20.27-20.26h0a20.26,20.26,0,0,0-20.26,20.26v26.71a237.64,237.64,0,0,1,20.26,18.45"/></svg>