<?xml version="1.0" encoding="UTF-8"?>
<svg id="Warstwa_1" data-name="Warstwa 1" xmlns="http://www.w3.org/2000/svg" viewBox="0 0 20.6 20">
  <defs>
    <style>
      .cls-1 {
        fill: #f9dc06;
      }
    </style>
  </defs>
  <path class="cls-1" d="M10.34,20C3.63,20,0,15.81,0,10.41,0,4.63,4.09,0,11.4,0c5.33,0,9.21,3.47,9.21,8.24,0,7.48-8.87,9.45-8.42,5.19-.61,.95-1.59,2.02-3.48,2.02-2.16,0-3.5-1.58-3.5-4.13,0-3.82,2.51-7.04,5.48-7.04,1.42,0,2.4,.75,2.81,1.91l.4-1.4h2.01c-.21,.71-1.99,7.32-1.99,7.32-.56,2.29,1.16,2.33,2.68,1.11,2.86-2.21,3.01-8.01-.86-10.42C11.59,.32,2.16,1.86,2.16,10.26c0,4.82,3.39,8.05,8.44,8.05,2.95,0,4.76-.8,6.26-1.67l1.01,1.46c-1.47,.83-3.83,1.9-7.54,1.9Zm-2.01-12.28c-.61,1.15-1.01,2.64-1.01,3.8,0,3.1,3.02,3.12,4.51,.21,.61-1.2,1.01-2.72,1.01-3.89,0-2.5-3-2.95-4.5-.12Z"/>
</svg>