<?xml version="1.0" encoding="UTF-8"?>
<svg id="Tryb_izolacji" data-name="Tryb izolacji" xmlns="http://www.w3.org/2000/svg" viewBox="0 0 36.6 35.92">
  <defs>
    <style>
      .cls-1 {
        fill: #f9dc06;
        stroke: #414143;
        stroke-width: 1.03px;
      }

      .cls-1, .cls-2, .cls-3 {
        stroke-linecap: round;
        stroke-linejoin: round;
      }

      .cls-2 {
        fill: none;
      }

      .cls-2, .cls-3 {
        stroke: #163b72;
        stroke-width: .82px;
      }

      .cls-3 {
        fill: #fff;
      }
    </style>
  </defs>
  <path class="cls-3" d="M29.16,5.17h5.33c.94,0,1.7,.76,1.7,1.7v26.95c0,.94-.76,1.7-1.7,1.7H2.11c-.94,0-1.7-.76-1.7-1.7V6.87c0-.94,.76-1.7,1.7-1.7h15.23"/>
  <g>
    <path class="cls-1" d="M12.54,16.71c0,2.67-4.84,9.1-4.84,9.1,0,0-4.84-6.42-4.84-9.1s2.17-4.84,4.84-4.84,4.84,2.17,4.84,4.84Z"/>
    <circle class="cls-3" cx="7.76" cy="16.67" r="2.56"/>
  </g>
  <path class="cls-1" d="M28.1,5.3c0,3.68-4.79,9-4.79,9,0,0-4.79-5.32-4.79-9,0-2.64,2.14-4.79,4.79-4.79s4.79,2.14,4.79,4.79Z"/>
  <line class="cls-2" x1="8.07" y1="27.85" x2="8.07" y2="35.52"/>
  <line class="cls-2" x1="8.07" y1="5.17" x2="8.07" y2="10.6"/>
  <line class="cls-2" x1="14.46" y1="28.38" x2="14.46" y2="35.52"/>
  <line class="cls-2" x1="14.46" y1="5.17" x2="14.46" y2="19.1"/>
  <line class="cls-2" x1="14.46" y1="19.1" x2="20.85" y2="12.72"/>
  <line class="cls-2" x1="29.8" y1="9.32" x2="29.8" y2="5.17"/>
  <line class="cls-2" x1="14.46" y1="28.38" x2="26.3" y2="15.71"/>
  <line class="cls-2" x1="29.28" y1="35.52" x2="36.19" y2="28.09"/>
  <line class="cls-2" x1="34.08" y1="21.8" x2="36.19" y2="19.57"/>
  <line class="cls-2" x1="21.08" y1="35.52" x2="24.74" y2="31.65"/>
  <line class="cls-2" x1="29.8" y1="9.32" x2="36.19" y2="9.32"/>
  <line class="cls-2" x1="26.3" y1="15.71" x2="36.19" y2="15.71"/>
  <line class="cls-2" x1="8.07" y1="27.85" x2=".41" y2="27.85"/>
  <line class="cls-2" x1="2.96" y1="21.14" x2=".41" y2="21.14"/>
  <g>
    <path class="cls-1" d="M32.94,23.21c0,2.67-4.84,9.1-4.84,9.1,0,0-4.84-6.42-4.84-9.1s2.17-4.84,4.84-4.84,4.84,2.17,4.84,4.84Z"/>
    <circle class="cls-3" cx="28.15" cy="23.17" r="2.56"/>
    <circle class="cls-3" cx="23.26" cy="5.3" r="2.56"/>
  </g>
</svg>