<?xml version="1.0" encoding="UTF-8"?>
<svg id="Warstwa_1" data-name="Warstwa 1" xmlns="http://www.w3.org/2000/svg" viewBox="0 0 20 20">
  <defs>
    <style>
      .cls-1 {
        fill: #f9dc06;
      }
    </style>
  </defs>
  <path class="cls-1" d="M4.17,5.83c2.3,0,4.17,1.87,4.17,4.17s-1.87,4.17-4.17,4.17S0,12.3,0,10,1.87,5.83,4.17,5.83ZM13.44,15.89c-.06,.25-.1,.51-.1,.78,0,1.84,1.49,3.33,3.33,3.33s3.33-1.49,3.33-3.33-1.49-3.33-3.33-3.33c-.97,0-1.84,.42-2.45,1.08l-4.57-2.44c-.19,.53-.46,1.02-.79,1.47l4.57,2.44ZM20,3.33c0-1.84-1.49-3.33-3.33-3.33s-3.33,1.49-3.33,3.33c0,.27,.04,.53,.1,.78l-4.57,2.44c.33,.45,.59,.94,.79,1.47l4.57-2.44c.61,.66,1.48,1.08,2.45,1.08,1.84,0,3.33-1.49,3.33-3.33Z"/>
</svg>