<?xml version="1.0" encoding="UTF-8"?><svg id="Tryb_izolacji" xmlns="http://www.w3.org/2000/svg" viewBox="0 0 1058.59 232.79"><defs><style>.cls-1{fill:#f9dc05;fill-rule:evenodd;}</style></defs><polygon class="cls-1" points="1028.49 19.78 1038.05 0 1058.59 0 1049.03 19.78 1028.49 19.78 1028.49 19.78"/><polygon class="cls-1" points="943.99 194.76 1019.68 38.04 1040.22 38.04 964.53 194.76 943.99 194.76 943.99 194.76"/><polygon class="cls-1" points="925.62 232.79 935.17 213.02 955.71 213.02 946.16 232.79 925.62 232.79 925.62 232.79"/><polygon class="cls-1" points="873.24 194.76 948.92 38.04 974.03 38.04 898.34 194.76 873.24 194.76 873.24 194.76"/><polygon class="cls-1" points="957.74 19.78 967.29 0 992.4 0 982.85 19.78 957.74 19.78 957.74 19.78"/><polygon class="cls-1" points="891.56 19.78 901.11 0 930.78 0 921.22 19.78 891.56 19.78 891.56 19.78"/><polygon class="cls-1" points="807.05 194.76 882.74 38.04 912.41 38.04 836.72 194.76 807.05 194.76 807.05 194.76"/><polygon class="cls-1" points="822.32 19.78 831.88 0 864.59 0 855.04 19.78 822.32 19.78 822.32 19.78"/><polygon class="cls-1" points="737.82 194.76 813.51 38.04 846.22 38.04 770.53 194.76 737.82 194.76 737.82 194.76"/><polygon class="cls-1" points="765.69 0 801.45 0 791.9 19.78 756.14 19.78 765.69 0 765.69 0"/><polygon class="cls-1" points="671.64 194.76 747.32 38.04 783.08 38.04 707.39 194.76 671.64 194.76 671.64 194.76"/><polygon class="cls-1" points="686.15 19.78 695.7 0 735.26 0 725.71 19.78 686.15 19.78 686.15 19.78"/><polygon class="cls-1" points="601.64 194.76 677.33 38.04 716.89 38.04 641.2 194.76 601.64 194.76 601.64 194.76"/><polygon class="cls-1" points="619.96 19.78 629.51 0 672.88 0 663.33 19.78 619.96 19.78 619.96 19.78"/><polygon class="cls-1" points="535.46 194.76 611.14 38.04 654.51 38.04 578.82 194.76 535.46 194.76 535.46 194.76"/><polygon class="cls-1" points="560 0 606.69 0 597.14 19.78 550.44 19.78 560 0 560 0"/><polygon class="cls-1" points="465.94 194.76 541.63 38.04 588.32 38.04 512.63 194.76 465.94 194.76 465.94 194.76"/><polygon class="cls-1" points="399.75 194.76 475.44 38.04 525.47 38.04 449.78 194.76 399.75 194.76 399.75 194.76"/><polygon class="cls-1" points="484.26 19.78 493.81 0 543.84 0 534.29 19.78 484.26 19.78 484.26 19.78"/><polygon class="cls-1" points="424.87 0 477.65 0 468.1 19.78 415.32 19.78 424.87 0 424.87 0"/><polygon class="cls-1" points="330.81 194.76 406.5 38.04 459.28 38.04 383.6 194.76 330.81 194.76 330.81 194.76"/><polygon class="cls-1" points="264.63 194.76 340.31 38.04 395.85 38.04 320.16 194.76 264.63 194.76 264.63 194.76"/><polygon class="cls-1" points="349.13 19.78 358.68 0 414.22 0 404.67 19.78 349.13 19.78 349.13 19.78"/><polygon class="cls-1" points="286.41 0 348.03 0 338.48 19.78 276.86 19.78 286.41 0 286.41 0"/><polygon class="cls-1" points="192.35 194.76 268.04 38.04 329.66 38.04 253.97 194.76 192.35 194.76 192.35 194.76"/><polygon class="cls-1" points="126.17 194.76 201.85 38.04 263.68 38.04 187.99 194.76 126.17 194.76 126.17 194.76"/><polygon class="cls-1" points="220.22 0 282.05 0 272.5 19.78 210.67 19.78 220.22 0 220.22 0"/><polygon class="cls-1" points="854.87 232.79 864.42 213.02 889.52 213.02 879.97 232.79 854.87 232.79 854.87 232.79"/><polygon class="cls-1" points="788.68 232.79 798.23 213.02 827.9 213.02 818.35 232.79 788.68 232.79 788.68 232.79"/><polygon class="cls-1" points="719.45 232.79 729 213.02 761.71 213.02 752.16 232.79 719.45 232.79 719.45 232.79"/><polygon class="cls-1" points="653.27 232.79 662.82 213.02 698.57 213.02 689.02 232.79 653.27 232.79 653.27 232.79"/><polygon class="cls-1" points="583.27 232.79 592.83 213.02 632.38 213.02 622.83 232.79 583.27 232.79 583.27 232.79"/><polygon class="cls-1" points="526.64 213.02 570 213.02 560.45 232.79 517.09 232.79 526.64 213.02 526.64 213.02"/><polygon class="cls-1" points="447.57 232.79 457.12 213.02 503.81 213.02 494.26 232.79 447.57 232.79 447.57 232.79"/><polygon class="cls-1" points="381.38 232.79 390.93 213.02 440.96 213.02 431.41 232.79 381.38 232.79 381.38 232.79"/><polygon class="cls-1" points="312.44 232.79 321.99 213.02 374.78 213.02 365.23 232.79 312.44 232.79 312.44 232.79"/><polygon class="cls-1" points="246.26 232.79 255.81 213.02 311.34 213.02 301.79 232.79 246.26 232.79 246.26 232.79"/><polygon class="cls-1" points="173.98 232.79 183.53 213.02 245.16 213.02 235.61 232.79 173.98 232.79 173.98 232.79"/><polygon class="cls-1" points="117.35 213.02 179.18 213.02 169.63 232.79 107.8 232.79 117.35 213.02 117.35 213.02"/><polygon class="cls-1" points="0 38.04 197.49 38.04 121.81 194.76 0 194.76 0 38.04 0 38.04"/><polygon class="cls-1" points="0 0 215.87 0 206.31 19.78 0 19.78 0 0 0 0"/><polygon class="cls-1" points="0 213.02 112.99 213.02 103.44 232.79 0 232.79 0 213.02 0 213.02"/></svg>