<svg width="36" height="36" viewBox="0 0 36 36" fill="none" xmlns="http://www.w3.org/2000/svg">
<g clip-path="url(#clip0_7_71)">
<path d="M22.48 16.77L27.25 19.28C28.18 19.78 28.9 20.61 29.27 21.6L31.93 28.71C32.45 30.09 32.02 31.64 30.88 32.56L30.2 33.11C29.99 33.28 29.73 33.37 29.46 33.37H27.48H9.06H7.05C6.78 33.37 6.52 33.28 6.31 33.11L5.63 32.56C4.49 31.64 4.06 30.09 4.58 28.71L7.24 21.6C7.61 20.61 8.33 19.78 9.26 19.28L14.03 16.77" fill="#54B0EF"/>
<path d="M22.48 16.77L27.25 19.28C28.18 19.78 28.9 20.61 29.27 21.6L31.93 28.71C32.45 30.09 32.02 31.64 30.88 32.56L30.2 33.11C29.99 33.28 29.73 33.37 29.46 33.37H27.48H9.06H7.05C6.78 33.37 6.52 33.28 6.31 33.11L5.63 32.56C4.49 31.64 4.06 30.09 4.58 28.71L7.24 21.6C7.61 20.61 8.33 19.78 9.26 19.28L14.03 16.77" stroke="#381999" stroke-width="0.71" stroke-linecap="round" stroke-linejoin="round"/>
<path d="M10.2301 21.64H26.2901C26.9401 21.64 27.4701 22.17 27.4701 22.82V33.37H9.06006V22.82C9.06006 22.17 9.59006 21.64 10.2401 21.64H10.2301Z" fill="white" stroke="#231D93" stroke-width="0.63" stroke-linecap="round" stroke-linejoin="round"/>
<path d="M9.06012 28.83L7.37012 27.81" stroke="#231D93" stroke-width="0.63" stroke-linecap="round" stroke-linejoin="round"/>
<path d="M29.1602 27.81L27.4702 28.83" stroke="#231D93" stroke-width="0.63" stroke-linecap="round" stroke-linejoin="round"/>
<path d="M18.2499 3.37C14.8599 3.37 12.0599 5.91 11.7499 9.14C11.7499 9.14 11.7299 9.14 11.7199 9.14C10.5899 9.14 9.65991 10.04 9.65991 11.15C9.65991 12.26 10.5899 13.16 11.7199 13.16C11.7199 13.16 11.7399 13.16 11.7499 13.16C12.0499 16.38 14.8599 18.93 18.2499 18.93C21.6399 18.93 24.4399 16.39 24.7499 13.16C24.7499 13.16 24.7699 13.16 24.7799 13.16C25.9099 13.16 26.8399 12.26 26.8399 11.15C26.8399 10.04 25.9099 9.14 24.7799 9.14C24.7799 9.14 24.7599 9.14 24.7499 9.14" fill="white"/>
<path d="M18.2499 3.37C14.8599 3.37 12.0599 5.91 11.7499 9.14C11.7499 9.14 11.7299 9.14 11.7199 9.14C10.5899 9.14 9.65991 10.04 9.65991 11.15C9.65991 12.26 10.5899 13.16 11.7199 13.16C11.7199 13.16 11.7399 13.16 11.7499 13.16C12.0499 16.38 14.8599 18.93 18.2499 18.93C21.6399 18.93 24.4399 16.39 24.7499 13.16C24.7499 13.16 24.7699 13.16 24.7799 13.16C25.9099 13.16 26.8399 12.26 26.8399 11.15C26.8399 10.04 25.9099 9.14 24.7799 9.14C24.7799 9.14 24.7599 9.14 24.7499 9.14" stroke="#231D93" stroke-width="0.63" stroke-linecap="round" stroke-linejoin="round"/>
<path d="M22.14 6.59999V10.47C22.14 11.23 22.82 11.85 23.61 11.74C24.26 11.65 24.73 11.07 24.73 10.42V4.89999C24.73 4.04999 24.03 3.35999 23.18 3.35999H18.25C12.32 3.77999 11.77 9.10999 11.77 9.12999V10.47C11.77 11.23 12.45 11.85 13.24 11.74C13.89 11.65 14.36 11.07 14.36 10.42V8.37999C14.36 8.37999 18.36 9.65999 22.14 7.21999" fill="#F9DC06"/>
<path d="M22.14 6.59999V10.47C22.14 11.23 22.82 11.85 23.61 11.74C24.26 11.65 24.73 11.07 24.73 10.42V4.89999C24.73 4.04999 24.03 3.35999 23.18 3.35999H18.25C12.32 3.77999 11.77 9.10999 11.77 9.12999V10.47C11.77 11.23 12.45 11.85 13.24 11.74C13.89 11.65 14.36 11.07 14.36 10.42V8.37999C14.36 8.37999 18.36 9.65999 22.14 7.21999" stroke="#414143" stroke-width="0.73" stroke-linecap="round" stroke-linejoin="round"/>
<path d="M17.65 11.75L17.22 13.3C17.14 13.59 16.88 13.79 16.58 13.79H14.64C14.35 13.79 14.1 13.61 14.01 13.34L13.51 11.76H23L22.57 13.31C22.49 13.6 22.23 13.8 21.93 13.8H19.99C19.7 13.8 19.45 13.62 19.36 13.35L18.86 11.77" stroke="#231D93" stroke-width="0.63" stroke-linecap="round" stroke-linejoin="round"/>
</g>
<defs>
<clipPath id="clip0_7_71">
<rect width="28.5" height="30.72" fill="white" transform="translate(4 3)"/>
</clipPath>
</defs>
</svg>
