<?xml version="1.0" encoding="UTF-8" standalone="no"?>
<svg
   width="24"
   height="24"
   viewBox="0 0 24 24"
   version="1.1"
   id="svg4"
   xmlns="http://www.w3.org/2000/svg"
   xmlns:svg="http://www.w3.org/2000/svg">
  <defs
     id="defs8" />
  <path
     d="M 12,0 C 5.373,0 0,5.373 0,12 0,18.627 5.373,24 12,24 18.627,24 24,18.627 24,12 24,5.373 18.627,0 12,0 Z m 0,22 C 8.877,22 6.086,20.559 4.251,18.31 4.51,17.722 5.034,17.315 6.118,17.064 8.362,16.546 10.577,16.083 9.511,14.119 6.356,8.299 8.612,5 12,5 c 3.322,0 5.634,3.177 2.489,9.119 -1.035,1.952 1.1,2.416 3.393,2.945 1.082,0.25 1.61,0.655 1.871,1.241 C 17.917,20.558 15.125,22 12,22 Z"
     id="path2"
     style="fill:#9e9e9e;fill-opacity:1" />
</svg>
