<svg width="36" height="36" viewBox="0 0 36 36" fill="none" xmlns="http://www.w3.org/2000/svg">
<g clip-path="url(#clip0_7_73)">
<path d="M18.0001 3.33002C9.90008 3.33002 3.33008 9.90002 3.33008 18C3.33008 26.1 9.90008 32.67 18.0001 32.67C26.1001 32.67 32.6701 26.1 32.6701 18C32.6701 9.90002 26.1001 3.33002 18.0001 3.33002ZM18.0001 6.22002C23.7601 6.22002 28.5401 10.35 29.5801 15.8H24.2201C24.0101 15.8 23.8001 15.76 23.6001 15.67C19.8701 14.15 16.1501 14.15 12.4201 15.67C12.2201 15.75 12.0101 15.8 11.8001 15.8H6.42008C7.46008 10.34 12.2401 6.22002 18.0001 6.22002ZM6.23008 18.58H10.7601C11.4301 18.58 12.0401 18.99 12.3301 19.65C12.9801 21.13 14.3501 22.66 15.7501 23.45C16.3401 23.78 16.7101 24.43 16.7101 25.14V29.71C10.9901 29.09 6.50008 24.39 6.22008 18.58H6.23008ZM19.2801 29.71V25.14C19.2801 24.42 19.6601 23.78 20.2401 23.45C21.6501 22.66 23.0201 21.13 23.6601 19.65C23.9501 18.99 24.5601 18.58 25.2301 18.58H29.7601C29.4801 24.39 24.9901 29.1 19.2701 29.71H19.2801Z" fill="#54B0EF"/>
<path d="M18 33C9.73 33 3 26.27 3 18C3 9.73 9.73 3 18 3C26.27 3 33 9.73 33 18C33 26.27 26.27 33 18 33ZM18 3.66C10.09 3.66 3.66 10.09 3.66 18C3.66 25.91 10.09 32.34 18 32.34C25.91 32.34 32.34 25.91 32.34 18C32.34 10.09 25.91 3.66 18 3.66ZM19.28 30.04C19.2 30.04 19.12 30.01 19.06 29.96C18.99 29.9 18.95 29.81 18.95 29.71V25.14C18.95 24.31 19.38 23.56 20.08 23.16C21.42 22.4 22.74 20.93 23.36 19.51C23.7 18.74 24.43 18.24 25.23 18.24H29.76C29.85 18.24 29.94 18.28 30 18.34C30.06 18.41 30.09 18.49 30.09 18.58C29.95 21.46 28.78 24.21 26.79 26.3C24.81 28.39 22.15 29.71 19.3 30.02C19.29 30.02 19.28 30.02 19.26 30.02L19.28 30.04ZM25.24 18.91C24.7 18.91 24.2 19.25 23.97 19.78C23.3 21.32 21.87 22.92 20.41 23.74C19.92 24.02 19.61 24.56 19.61 25.15V29.34C24.95 28.59 29 24.29 29.42 18.91H25.24V18.91ZM16.72 30.04C16.72 30.04 16.7 30.04 16.68 30.04C13.83 29.73 11.17 28.41 9.19 26.32C7.2 24.22 6.03 21.48 5.89 18.6C5.89 18.51 5.92 18.42 5.98 18.36C6.04 18.29 6.13 18.26 6.22 18.26H10.76C11.56 18.26 12.3 18.76 12.63 19.53C13.25 20.95 14.57 22.42 15.91 23.18C16.61 23.57 17.04 24.33 17.04 25.16V29.73C17.04 29.82 17 29.91 16.93 29.98C16.87 30.03 16.79 30.06 16.71 30.06L16.72 30.04ZM6.58 18.91C7 24.29 11.05 28.6 16.39 29.34V25.15C16.39 24.56 16.08 24.02 15.59 23.74C14.13 22.92 12.7 21.32 12.03 19.78C11.8 19.25 11.3 18.91 10.76 18.91H6.58V18.91ZM29.57 16.13H24.21C23.96 16.13 23.71 16.08 23.47 15.98C19.84 14.5 16.16 14.5 12.54 15.98C12.3 16.08 12.05 16.13 11.8 16.13H6.42C6.32 16.13 6.23 16.09 6.17 16.01C6.11 15.93 6.08 15.83 6.1 15.74C7.18 10.03 12.18 5.89 18 5.89C23.82 5.89 28.82 10.03 29.9 15.74C29.92 15.84 29.9 15.94 29.83 16.01C29.77 16.09 29.67 16.13 29.58 16.13H29.57ZM17.99 14.21C19.9 14.21 21.81 14.6 23.7 15.37C23.86 15.44 24.03 15.47 24.2 15.47H29.16C27.99 10.28 23.36 6.55 17.99 6.55C12.62 6.55 8 10.27 6.83 15.47H11.79C11.95 15.47 12.12 15.44 12.29 15.37C14.19 14.6 16.1 14.21 18.01 14.21H17.99Z" fill="#381999"/>
<path d="M23.5902 15.67C19.8602 14.15 16.1402 14.15 12.4102 15.67H23.5902Z" fill="#54B0EF"/>
<path d="M23.59 16C23.59 16 23.51 16 23.47 15.98C19.84 14.5 16.16 14.5 12.54 15.98C12.37 16.05 12.18 15.97 12.11 15.8C12.04 15.63 12.12 15.44 12.29 15.37C16.08 13.83 19.93 13.83 23.72 15.37C23.89 15.44 23.97 15.63 23.9 15.8C23.85 15.93 23.72 16.01 23.59 16.01V16Z" fill="#381999"/>
<path d="M20.9298 16.76C18.9798 16.36 17.0298 16.36 15.0798 16.76H20.9298Z" fill="#54B0EF"/>
<path d="M15.0699 17.09C14.9199 17.09 14.7799 16.98 14.7499 16.83C14.7099 16.65 14.8299 16.48 15.0099 16.44C16.9899 16.04 19.0099 16.04 20.9899 16.44C21.1699 16.48 21.2799 16.65 21.2499 16.83C21.2099 17.01 21.0399 17.12 20.8599 17.09C18.9599 16.7 17.0399 16.7 15.1399 17.09C15.1199 17.09 15.0999 17.09 15.0699 17.09V17.09Z" fill="#381999"/>
<path d="M21.5799 18.45C21.3799 20.25 19.4599 21.63 17.9999 21.63C16.5399 21.63 14.6899 20.25 14.4199 18.45H21.5799Z" fill="#54B0EF"/>
<path d="M18 21.97C16.4 21.97 14.39 20.49 14.09 18.51C14.06 18.33 14.19 18.16 14.37 18.14C14.55 18.11 14.72 18.24 14.74 18.42C14.99 20.05 16.69 21.32 18 21.32C19.31 21.32 21.08 20.03 21.25 18.43C21.27 18.25 21.43 18.12 21.61 18.14C21.79 18.16 21.92 18.32 21.9 18.5C21.69 20.46 19.62 21.98 17.99 21.98L18 21.97Z" fill="#381999"/>
</g>
<defs>
<clipPath id="clip0_7_73">
<rect width="30" height="30" fill="white" transform="translate(3 3)"/>
</clipPath>
</defs>
</svg>
